<svg xmlns="http://www.w3.org/2000/svg" xmlns:xlink="http://www.w3.org/1999/xlink" width="500" zoomAndPan="magnify" viewBox="0 0 375 374.999991" height="500" preserveAspectRatio="xMidYMid meet" version="1.0"><defs><g/></defs><g fill="#ff00ff" fill-opacity="1"><g transform="translate(-27.423497, 248.838754)"><g><path d="M 65.921875 -89.5 L 69.734375 -85.6875 L 34.71875 -50.53125 L 69.734375 -15.53125 L 65.921875 -11.71875 L 27.09375 -50.53125 Z M 65.921875 -89.5 "/></g></g></g><g fill="#ff00ff" fill-opacity="1"><g transform="translate(80.972199, 248.838754)"><g><path d="M 61.375 -101.953125 C 67.820312 -101.953125 72.953125 -100.976562 76.765625 -99.03125 C 81.347656 -96.6875 84.882812 -93.460938 87.375 -89.359375 C 89.863281 -85.253906 91.109375 -80.664062 91.109375 -75.59375 C 91.109375 -70.800781 89.835938 -66.378906 87.296875 -62.328125 C 84.765625 -58.273438 81.300781 -55.078125 76.90625 -52.734375 C 82.175781 -50.878906 86.617188 -47.65625 90.234375 -43.0625 C 93.847656 -38.476562 95.65625 -33.304688 95.65625 -27.546875 C 95.65625 -22.460938 94.359375 -17.796875 91.765625 -13.546875 C 89.179688 -9.296875 85.742188 -5.953125 81.453125 -3.515625 C 79.296875 -2.347656 76.898438 -1.46875 74.265625 -0.875 C 71.628906 -0.289062 68.113281 0 63.71875 0 L 18.609375 0 L 18.609375 -101.953125 Z M 61.375 -101.953125 "/></g></g></g><g fill="#ff00ff" fill-opacity="1"><g transform="translate(189.367894, 248.838754)"><g><path d="M 96.390625 0 L 18.015625 0 L 18.015625 -101.953125 L 57.71875 -101.953125 C 66.207031 -101.953125 73.140625 -100.4375 78.515625 -97.40625 C 83.785156 -94.476562 87.882812 -90.472656 90.8125 -85.390625 C 93.75 -80.316406 95.21875 -74.707031 95.21875 -68.5625 C 95.21875 -60.9375 92.875 -54.117188 88.1875 -48.109375 C 83.5 -42.109375 77.585938 -38.132812 70.453125 -36.1875 Z M 27.25 -96.53125 L 67.09375 -40.875 C 73.632812 -42.238281 79.050781 -45.507812 83.34375 -50.6875 C 87.644531 -55.863281 89.796875 -61.820312 89.796875 -68.5625 C 89.796875 -73.925781 88.476562 -78.804688 85.84375 -83.203125 C 83.207031 -87.597656 79.492188 -90.96875 74.703125 -93.3125 C 70.410156 -95.457031 64.796875 -96.53125 57.859375 -96.53125 Z M 23.4375 -93.015625 L 23.4375 -40.4375 L 61.078125 -40.4375 Z M 23.4375 -5.421875 L 86.140625 -5.421875 L 64.75 -35.15625 L 60.203125 -35.015625 L 23.4375 -35.015625 Z M 23.4375 -5.421875 "/></g></g></g><g fill="#ff00ff" fill-opacity="1"><g transform="translate(297.763608, 248.838754)"><g><path d="M 69.4375 -50.53125 L 34.421875 -85.6875 L 38.234375 -89.5 L 77.046875 -50.53125 L 38.234375 -11.71875 L 34.421875 -15.53125 Z M 69.4375 -50.53125 "/></g></g></g><g fill="#00ffff" fill-opacity="1"><g transform="translate(-27.423497, 243.345721)"><g><path d="M 65.921875 -89.5 L 69.734375 -85.6875 L 34.71875 -50.53125 L 69.734375 -15.53125 L 65.921875 -11.71875 L 27.09375 -50.53125 Z M 65.921875 -89.5 "/></g></g></g><g fill="#00ffff" fill-opacity="1"><g transform="translate(80.972199, 243.345721)"><g><path d="M 61.375 -101.953125 C 67.820312 -101.953125 72.953125 -100.976562 76.765625 -99.03125 C 81.347656 -96.6875 84.882812 -93.460938 87.375 -89.359375 C 89.863281 -85.253906 91.109375 -80.664062 91.109375 -75.59375 C 91.109375 -70.800781 89.835938 -66.378906 87.296875 -62.328125 C 84.765625 -58.273438 81.300781 -55.078125 76.90625 -52.734375 C 82.175781 -50.878906 86.617188 -47.65625 90.234375 -43.0625 C 93.847656 -38.476562 95.65625 -33.304688 95.65625 -27.546875 C 95.65625 -22.460938 94.359375 -17.796875 91.765625 -13.546875 C 89.179688 -9.296875 85.742188 -5.953125 81.453125 -3.515625 C 79.296875 -2.347656 76.898438 -1.46875 74.265625 -0.875 C 71.628906 -0.289062 68.113281 0 63.71875 0 L 18.609375 0 L 18.609375 -101.953125 Z M 61.375 -101.953125 "/></g></g></g><g fill="#00ffff" fill-opacity="1"><g transform="translate(189.367894, 243.345721)"><g><path d="M 96.390625 0 L 18.015625 0 L 18.015625 -101.953125 L 57.71875 -101.953125 C 66.207031 -101.953125 73.140625 -100.4375 78.515625 -97.40625 C 83.785156 -94.476562 87.882812 -90.472656 90.8125 -85.390625 C 93.75 -80.316406 95.21875 -74.707031 95.21875 -68.5625 C 95.21875 -60.9375 92.875 -54.117188 88.1875 -48.109375 C 83.5 -42.109375 77.585938 -38.132812 70.453125 -36.1875 Z M 27.25 -96.53125 L 67.09375 -40.875 C 73.632812 -42.238281 79.050781 -45.507812 83.34375 -50.6875 C 87.644531 -55.863281 89.796875 -61.820312 89.796875 -68.5625 C 89.796875 -73.925781 88.476562 -78.804688 85.84375 -83.203125 C 83.207031 -87.597656 79.492188 -90.96875 74.703125 -93.3125 C 70.410156 -95.457031 64.796875 -96.53125 57.859375 -96.53125 Z M 23.4375 -93.015625 L 23.4375 -40.4375 L 61.078125 -40.4375 Z M 23.4375 -5.421875 L 86.140625 -5.421875 L 64.75 -35.15625 L 60.203125 -35.015625 L 23.4375 -35.015625 Z M 23.4375 -5.421875 "/></g></g></g><g fill="#00ffff" fill-opacity="1"><g transform="translate(297.763608, 243.345721)"><g><path d="M 69.4375 -50.53125 L 34.421875 -85.6875 L 38.234375 -89.5 L 77.046875 -50.53125 L 38.234375 -11.71875 L 34.421875 -15.53125 Z M 69.4375 -50.53125 "/></g></g></g><g fill="#ffffff" fill-opacity="1"><g transform="translate(-27.423497, 246.092238)"><g><path d="M 65.921875 -89.5 L 69.734375 -85.6875 L 34.71875 -50.53125 L 69.734375 -15.53125 L 65.921875 -11.71875 L 27.09375 -50.53125 Z M 65.921875 -89.5 "/></g></g></g><g fill="#ffffff" fill-opacity="1"><g transform="translate(80.972199, 246.092238)"><g><path d="M 61.375 -101.953125 C 67.820312 -101.953125 72.953125 -100.976562 76.765625 -99.03125 C 81.347656 -96.6875 84.882812 -93.460938 87.375 -89.359375 C 89.863281 -85.253906 91.109375 -80.664062 91.109375 -75.59375 C 91.109375 -70.800781 89.835938 -66.378906 87.296875 -62.328125 C 84.765625 -58.273438 81.300781 -55.078125 76.90625 -52.734375 C 82.175781 -50.878906 86.617188 -47.65625 90.234375 -43.0625 C 93.847656 -38.476562 95.65625 -33.304688 95.65625 -27.546875 C 95.65625 -22.460938 94.359375 -17.796875 91.765625 -13.546875 C 89.179688 -9.296875 85.742188 -5.953125 81.453125 -3.515625 C 79.296875 -2.347656 76.898438 -1.46875 74.265625 -0.875 C 71.628906 -0.289062 68.113281 0 63.71875 0 L 18.609375 0 L 18.609375 -101.953125 Z M 61.375 -101.953125 "/></g></g></g><g fill="#ffffff" fill-opacity="1"><g transform="translate(189.367894, 246.092238)"><g><path d="M 96.390625 0 L 18.015625 0 L 18.015625 -101.953125 L 57.71875 -101.953125 C 66.207031 -101.953125 73.140625 -100.4375 78.515625 -97.40625 C 83.785156 -94.476562 87.882812 -90.472656 90.8125 -85.390625 C 93.75 -80.316406 95.21875 -74.707031 95.21875 -68.5625 C 95.21875 -60.9375 92.875 -54.117188 88.1875 -48.109375 C 83.5 -42.109375 77.585938 -38.132812 70.453125 -36.1875 Z M 27.25 -96.53125 L 67.09375 -40.875 C 73.632812 -42.238281 79.050781 -45.507812 83.34375 -50.6875 C 87.644531 -55.863281 89.796875 -61.820312 89.796875 -68.5625 C 89.796875 -73.925781 88.476562 -78.804688 85.84375 -83.203125 C 83.207031 -87.597656 79.492188 -90.96875 74.703125 -93.3125 C 70.410156 -95.457031 64.796875 -96.53125 57.859375 -96.53125 Z M 23.4375 -93.015625 L 23.4375 -40.4375 L 61.078125 -40.4375 Z M 23.4375 -5.421875 L 86.140625 -5.421875 L 64.75 -35.15625 L 60.203125 -35.015625 L 23.4375 -35.015625 Z M 23.4375 -5.421875 "/></g></g></g><g fill="#ffffff" fill-opacity="1"><g transform="translate(297.763608, 246.092238)"><g><path d="M 69.4375 -50.53125 L 34.421875 -85.6875 L 38.234375 -89.5 L 77.046875 -50.53125 L 38.234375 -11.71875 L 34.421875 -15.53125 Z M 69.4375 -50.53125 "/></g></g></g></svg>